<svg width="697" height="128" viewBox="0 0 697 128" fill="none" xmlns="http://www.w3.org/2000/svg">
<g clip-path="url(#clip0_19_2)">
<path d="M57.1328 91.4453L64 84.5781V43.4453L57.1328 36.5781H43.4219L36.5547 43.4453V84.5781L43.4219 91.4453H57.1328ZM29.7109 112L16 98.2891V29.7344L29.7109 16H70.8438L84.5547 29.7344V98.2891L70.8438 112H29.7109ZM91.4688 112V91.4453H98.3125V36.5781H91.4688V16H118.891L146.312 70.8672V36.5781H139.469V16H173.734V36.5781H166.891V112H146.312L118.891 57.1562V91.4453H125.734V112H91.4688ZM180.625 112V91.4453H187.469V36.5781H180.625V16H249.18V43.4453H228.625V36.5781H208.047V50.2891H235.469V70.8672H208.047V91.4453H228.625V84.5781H249.18V112H180.625ZM256.094 112V84.5781H276.648V88L280.094 91.4453H297.227L304.094 84.5781V77.7344L297.227 70.8672H269.805L256.094 57.1562V29.7344L269.805 16H300.648L304.094 19.4453V16H324.648V43.4453H304.094V40L300.648 36.5781H283.516L276.648 43.4453L283.516 50.2891H310.938L324.648 64V98.2891L310.938 112H280.094L276.648 108.578V112H256.094ZM379.562 50.2891L386.406 43.4453L379.562 36.5781H358.984V50.2891H379.562ZM331.562 112V91.4453H338.406V36.5781H331.562V16H393.273L406.984 29.7344V57.1562L393.273 70.8672H358.984V91.4453H365.828V112H331.562ZM455.008 91.4453L461.875 84.5781V43.4453L455.008 36.5781H441.297L434.43 43.4453V84.5781L441.297 91.4453H455.008ZM427.586 112L413.875 98.2891V29.7344L427.586 16H468.719L482.43 29.7344V98.2891L468.719 112H427.586ZM537.344 50.2891L544.188 43.4453L537.344 36.5781H516.766V50.2891H537.344ZM489.344 112V91.4453H496.188V36.5781H489.344V16H551.055L564.766 29.7344V57.1562L551.055 70.8672H544.188L554.477 91.4453H564.766V112H530.477V91.4453H533.898L523.609 70.8672H516.766V91.4453H523.609V112H489.344ZM592.211 112V91.4453H599.078V36.5781H592.211V43.4453H571.656V16H647.078V43.4453H626.5V36.5781H619.656V91.4453H626.5V112H592.211Z" fill="#262626"/>
<path d="M653.969 112V84.5938H681.375V112H653.969Z" fill="#0284C7"/>
</g>
<defs>
<clipPath id="clip0_19_2">
<rect width="697" height="128" fill="white"/>
</clipPath>
</defs>
</svg>
