<svg width="40" height="40" viewBox="0 0 40 40" fill="none" xmlns="http://www.w3.org/2000/svg">
<path fill-rule="evenodd" clip-rule="evenodd" d="M8.54724 23.9541L6.55239 25.9502C4.48254 28.0188 4.48254 31.3752 6.55239 33.4437C6.55239 33.445 6.55239 33.4463 6.55368 33.4476C8.62353 35.5175 11.9786 35.5175 14.0485 33.4476L16.0446 31.4515L32.6372 25.211C33.7968 24.7753 34.6566 23.7786 34.919 22.5671C35.1815 21.3544 34.8091 20.0926 33.9326 19.2161C32.994 18.2788 31.6352 17.9672 30.4173 18.3434C30.4768 18.1404 30.5182 17.9297 30.5415 17.7151C30.6552 16.633 30.2751 15.5586 29.5059 14.7907L29.5046 14.7894C28.5957 13.8805 27.3171 13.5663 26.1535 13.8482C26.2195 13.5754 26.2557 13.2922 26.2557 13.0065C26.2557 12.0666 25.8807 11.1655 25.2162 10.4997C25.2162 10.4984 25.2149 10.4984 25.2149 10.4984C24.4457 9.72915 23.37 9.35032 22.2879 9.4654C22.0733 9.48867 21.8638 9.53133 21.6609 9.5908C22.0371 8.37035 21.7255 7.00898 20.7882 6.0716C20.7869 6.07031 20.7856 6.07031 20.7843 6.06902C19.9078 5.19248 18.6447 4.82013 17.4332 5.08256C16.2192 5.34372 15.2225 6.20346 14.7855 7.36443L8.54724 23.9541ZM8.992 24.9729L9.18464 25.1642L15.0269 31.0065L13.3165 32.7156C11.6513 34.3808 8.95163 34.3808 7.2852 32.7156C7.28391 32.7143 7.28391 32.7143 7.28261 32.7131C5.61611 31.0479 5.61611 28.3472 7.28261 26.6805L8.992 24.9729ZM14.9147 29.432L15.8882 30.4055L20.4702 28.6822L18.7455 26.9575L14.9147 29.432ZM16.2593 24.4714L17.9917 26.2039L14.166 28.6836L13.1059 27.6234L16.2593 24.4714ZM21.5329 28.2829L19.635 26.385L30.1086 19.6183C31.0885 18.9861 32.3762 19.1231 33.2011 19.9467C33.8294 20.5763 34.0957 21.48 33.9083 22.3488C33.7208 23.2176 33.1041 23.9312 32.2728 24.2441L21.5329 28.2829ZM13.8392 22.0514L15.5277 23.7399L12.3757 26.8918L11.3738 25.8912L13.8392 22.0514ZM18.8799 25.6298L16.9898 23.7397L25.211 15.5197C26.1936 14.5359 27.7903 14.5359 28.7743 15.5197V15.521C29.3224 16.0692 29.5939 16.8359 29.5125 17.6064C29.431 18.3769 29.007 19.0699 28.3554 19.4914L18.8799 25.6298ZM11.3166 19.5287L13.0865 21.2987L10.6249 25.1422L9.59321 24.1105L11.3166 19.5287ZM16.2593 23.0079L14.4118 21.1617L20.5179 11.6566C20.9367 11.005 21.6271 10.5771 22.3977 10.493C23.1682 10.4103 23.9349 10.6818 24.483 11.2287L24.4843 11.2313C24.9562 11.7032 25.2213 12.3405 25.2213 13.0063C25.2213 13.6734 24.9562 14.3121 24.4843 14.7827L16.2593 23.0079ZM13.658 20.4067L11.7162 18.4661L15.7537 7.72909C16.0678 6.8978 16.7815 6.2811 17.6503 6.09235C18.5191 5.90488 19.4241 6.17121 20.0537 6.80082C20.055 6.80082 20.055 6.80212 20.0563 6.80212C20.8798 7.62567 21.0182 8.91076 20.3911 9.89202L13.658 20.4067Z" fill="black"/>
</svg>
