<svg width="40" height="40" viewBox="0 0 40 40" fill="none" xmlns="http://www.w3.org/2000/svg">
<path fill-rule="evenodd" clip-rule="evenodd" d="M6.05368 32.9476L6.05239 32.9437C3.98254 30.8752 3.98254 27.5188 6.05239 25.4502L8.04724 23.4541L14.2855 6.86444C14.7225 5.70347 15.7192 4.84373 16.9332 4.58257C18.1447 4.32014 19.4078 4.69249 20.2843 5.56903L20.2882 5.57161C21.0872 6.37068 21.4315 7.47786 21.2827 8.5432C21.2569 8.7276 21.2164 8.91074 21.1609 9.09081C21.3392 9.03855 21.5227 8.99926 21.7102 8.97472C21.736 8.97134 21.7619 8.96823 21.7879 8.96541C22.87 8.85033 23.9457 9.22916 24.7149 9.99841L24.7162 9.99971C25.3807 10.6655 25.7557 11.5666 25.7557 12.5065C25.7557 12.6108 25.7509 12.7148 25.7415 12.8181C25.7253 12.9976 25.6954 13.175 25.6535 13.3482C25.8282 13.3059 26.0054 13.277 26.1836 13.2616C27.1926 13.174 28.2321 13.5169 29.0046 14.2894L29.0059 14.2907C29.0207 14.3055 29.0354 14.3204 29.0499 14.3354C29.7895 15.1 30.153 16.1538 30.0415 17.2151C30.0386 17.2416 30.0355 17.268 30.032 17.2944C30.0077 17.4816 29.9695 17.6655 29.9173 17.8434C30.0972 17.7878 30.2802 17.7473 30.4645 17.7215C31.5275 17.5729 32.6327 17.9173 33.4326 18.7161C34.3091 19.5926 34.6815 20.8544 34.419 22.0671C34.1566 23.2786 33.2968 24.2753 32.1372 24.711L16.4072 30.6271L15.5446 30.9515L13.5485 32.9476C11.4786 35.0175 8.12353 35.0175 6.05368 32.9476ZM15.8217 31.3815L13.9021 33.3012C11.6369 35.5663 7.96523 35.5663 5.70012 33.3012L5.61619 33.2172L5.61406 33.2108C3.43411 30.9409 3.46235 27.332 5.69872 25.0968L7.61724 23.1771L13.8175 6.68846C14.3144 5.36843 15.4477 4.39069 16.828 4.09376C18.1888 3.79925 19.6061 4.20876 20.6008 5.17894L20.6061 5.18242L20.6418 5.21807C21.5172 6.09363 21.9146 7.29246 21.796 8.46219C23.0071 8.35156 24.2064 8.78286 25.0683 9.64473L25.0696 9.64603C25.8271 10.4049 26.2557 11.4333 26.2557 12.5065C26.2557 12.5899 26.253 12.673 26.2478 12.7556C27.3642 12.6885 28.5043 13.082 29.3582 13.9359L29.3592 13.9369M15.8217 31.3815L32.3131 25.1791C33.632 24.6835 34.6094 23.5502 34.9077 22.173C35.2062 20.7939 34.7826 19.3591 33.7861 18.3626C32.91 17.4876 31.7126 17.0897 30.5445 17.2083C30.6542 15.9967 30.2212 14.7977 29.3592 13.9369M12.8165 32.2156L14.5269 30.5065L8.68464 24.6642L8.492 24.4729L6.78261 26.1805C5.11611 27.8472 5.11611 30.5479 6.78261 32.2131L6.7852 32.2156C8.45163 33.8808 11.1513 33.8808 12.8165 32.2156ZM7.13301 31.8564L7.13867 31.8619C8.60994 33.3321 10.9931 33.3319 12.4629 31.8621L13.8197 30.5064L8.49248 25.1792L7.13618 26.534C5.66583 28.0046 5.66506 30.3863 7.13301 31.8564ZM28.2743 15.021V15.0197C27.2903 14.0359 25.6936 14.0359 24.711 15.0197L16.4898 23.2397L18.3799 25.1298L22.9915 22.1423L27.8554 18.9914C28.507 18.5699 28.931 17.8769 29.0125 17.1064C29.087 16.4008 28.8656 15.6984 28.4068 15.164C28.3647 15.1149 28.3205 15.0672 28.2743 15.021ZM28.5153 17.0538C28.5808 16.4336 28.3622 15.8161 27.9207 15.3745L27.8769 15.3307C27.0851 14.5849 25.8375 14.5994 25.0648 15.373L17.1969 23.2397L18.4475 24.4903L27.5835 18.5718C28.1078 18.2327 28.4496 17.6747 28.5153 17.0538ZM23.9843 14.2827C24.4562 13.8121 24.7213 13.1734 24.7213 12.5063C24.7213 11.8405 24.4562 11.2032 23.9843 10.7313L23.983 10.7287C23.4349 10.1818 22.6682 9.91031 21.8977 9.99301C21.1271 10.0771 20.4367 10.505 20.0179 11.1566L13.9118 20.6617L15.7593 22.5079L23.9843 14.2827ZM15.7592 21.8009L23.6307 13.9292C24.0085 13.5524 24.2213 13.0406 24.2213 12.5063C24.2213 11.9739 24.0094 11.4635 23.6307 11.0849L23.5871 11.0412C23.149 10.6285 22.5513 10.4259 21.9515 10.4901C21.3314 10.5579 20.7758 10.9023 20.4386 11.4269L14.5503 20.5929L15.7592 21.8009ZM19.5537 6.30083C18.9241 5.67122 18.0191 5.40489 17.1503 5.59236C16.2815 5.78111 15.5678 6.39781 15.2537 7.2291L11.2162 17.9661L13.158 19.9067L19.8911 9.39203C20.5182 8.41077 20.3798 7.12568 19.5563 6.30213L19.5537 6.30083ZM19.2449 6.69916L19.2001 6.65438C18.6907 6.14491 17.9587 5.92955 17.2561 6.08104C16.5534 6.23382 15.9758 6.73275 15.7215 7.40561L11.7977 17.8403L13.072 19.1139L19.4698 9.12278C19.9599 8.35593 19.8644 7.35749 19.2449 6.69916ZM15.5139 29.3241L19.0682 27.9873L18.1775 27.0967L15.2059 29.0162L15.5139 29.3241ZM15.3882 29.9055L17.6179 29.0669L19.9702 28.1822L19.0323 27.2443L18.2455 26.4575L14.4147 28.932L15.3882 29.9055ZM15.7592 24.6785L13.3131 27.1235L13.7335 27.544L16.7012 25.6205L15.7592 24.6785ZM15.7593 23.9714L12.6059 27.1234L13.666 28.1836L17.4917 25.7039L15.7593 23.9714ZM21.0329 27.7829L31.7728 23.7441C32.6041 23.4312 33.2208 22.7176 33.4083 21.8488C33.5957 20.98 33.3294 20.0763 32.7011 19.4467C31.8762 18.6231 30.5885 18.4861 29.6086 19.1183L21.0445 24.6514L19.135 25.885L19.6711 26.4211L21.0329 27.7829ZM19.9262 25.9691L21.1586 27.2015L31.5967 23.2762C32.2692 23.023 32.768 22.4457 32.9195 21.7434C33.071 21.041 32.856 20.3103 32.3478 19.8005C31.6895 19.1433 30.662 19.0339 29.8799 19.5383M29.8799 19.5383L19.9262 25.9691ZM13.3392 21.5514L10.8738 25.3912L11.8757 26.3918L15.0277 23.2399L13.3392 21.5514ZM13.4246 22.3439L14.3206 23.2399L11.8755 25.6849L11.5123 25.3222L13.4246 22.3439ZM10.8166 19.0287L9.09321 23.6105L10.1249 24.6422L12.5865 20.7987L10.8166 19.0287ZM11.0115 19.9308L9.67467 23.4849L10.039 23.8492L11.9485 20.8678L11.0115 19.9308Z" fill="black"/>
<path fill-rule="evenodd" clip-rule="evenodd" d="M6.05239 32.9437L6.05368 32.9476C8.12353 35.0175 11.4786 35.0175 13.5485 32.9476L15.5446 30.9515L16.4072 30.6271L17.6179 29.0669L15.3882 29.9055L14.4147 28.932L18.2455 26.4575L19.0323 27.2443L19.6711 26.4211L19.135 25.885L21.0445 24.6514L22.9915 22.1423L18.3799 25.1298L16.4898 23.2397L24.711 15.0197C25.6936 14.0359 27.2903 14.0359 28.2743 15.0197V15.021C28.3205 15.0672 28.3647 15.1149 28.4068 15.164L29.0499 14.3354C29.0354 14.3204 29.0207 14.3055 29.0059 14.2907L29.0046 14.2894C28.2321 13.5169 27.1926 13.174 26.1836 13.2616C26.0054 13.277 25.8282 13.3059 25.6535 13.3482C25.6954 13.175 25.7253 12.9976 25.7415 12.8181C25.7509 12.7148 25.7557 12.6108 25.7557 12.5065C25.7557 11.5666 25.3807 10.6655 24.7162 9.99971L24.7149 9.99841C23.9457 9.22916 22.87 8.85033 21.7879 8.96541C21.7619 8.96823 21.736 8.97134 21.7102 8.97472C21.5227 8.99926 21.3392 9.03855 21.1609 9.09081C21.2164 8.91074 21.2569 8.7276 21.2827 8.5432C21.4315 7.47786 21.0872 6.37068 20.2882 5.57161L20.2843 5.56903C19.4078 4.69249 18.1447 4.32014 16.9332 4.58257C15.7192 4.84373 14.7225 5.70347 14.2855 6.86444L8.04724 23.4541L6.05239 25.4502C3.98254 27.5188 3.98254 30.8752 6.05239 32.9437ZM8.68464 24.6642L8.492 24.4729L6.78261 26.1805C5.11611 27.8472 5.11611 30.5479 6.78261 32.2131L6.7852 32.2156C8.45163 33.8808 11.1513 33.8808 12.8165 32.2156L14.5269 30.5065L8.68464 24.6642ZM23.9843 14.2827C24.4562 13.8121 24.7213 13.1734 24.7213 12.5063C24.7213 11.8405 24.4562 11.2032 23.9843 10.7313L23.983 10.7287C23.4349 10.1818 22.6682 9.91031 21.8977 9.99301C21.1271 10.0771 20.4367 10.505 20.0179 11.1566L13.9118 20.6617L15.7593 22.5079L23.9843 14.2827ZM19.5537 6.30083C18.9241 5.67122 18.0191 5.40489 17.1503 5.59236C16.2815 5.78111 15.5678 6.39781 15.2537 7.2291L11.2162 17.9661L13.158 19.9067L19.8911 9.39203C20.5182 8.41077 20.3798 7.12568 19.5563 6.30213L19.5537 6.30083ZM10.8738 25.3912L11.8757 26.3918L15.0277 23.2399L13.3392 21.5514L10.8738 25.3912ZM17.4917 25.7039L15.7593 23.9714L12.6059 27.1234L13.666 28.1836L17.4917 25.7039ZM10.8166 19.0287L9.09321 23.6105L10.1249 24.6422L12.5865 20.7987L10.8166 19.0287Z" fill="black"/>
<path d="M30.032 17.2944C30.0355 17.268 30.0386 17.2416 30.0415 17.2151C30.153 16.1538 29.7895 15.1 29.0499 14.3354L28.4068 15.164C28.8656 15.6984 29.087 16.4008 29.0125 17.1064C28.931 17.8769 28.507 18.5699 27.8554 18.9914L22.9915 22.1423L21.0445 24.6514L29.6086 19.1183C30.5885 18.4861 31.8762 18.6231 32.7011 19.4467C33.3294 20.0763 33.5957 20.98 33.4083 21.8488C33.2208 22.7176 32.6041 23.4312 31.7728 23.7441L21.0329 27.7829L19.6711 26.4211L19.0323 27.2443L19.9702 28.1822L17.6179 29.0669L16.4072 30.6271L32.1372 24.711C33.2968 24.2753 34.1566 23.2786 34.419 22.0671C34.6815 20.8544 34.3091 19.5926 33.4326 18.7161C32.6327 17.9173 31.5275 17.5729 30.4645 17.7215C30.2802 17.7473 30.0972 17.7878 29.9173 17.8434C29.9695 17.6655 30.0077 17.4816 30.032 17.2944Z" fill="black"/>
</svg>
