<svg width="40" height="40" viewBox="0 0 40 40" fill="none" xmlns="http://www.w3.org/2000/svg">
<g clip-path="url(#clip0_434_2947)">
<path opacity="0.2" d="M13.75 27.5C15.4759 27.5 16.875 26.1009 16.875 24.375C16.875 22.6491 15.4759 21.25 13.75 21.25C12.0241 21.25 10.625 22.6491 10.625 24.375C10.625 26.1009 12.0241 27.5 13.75 27.5Z" fill="black"/>
<path opacity="0.2" d="M20 33.75C22.6522 33.75 25.1957 32.6964 27.0711 30.8211C28.9464 28.9457 30 26.4022 30 23.75V20H23.75V23.75C23.75 26.4022 22.6964 28.9457 20.8211 30.8211C18.9457 32.6964 16.4022 33.75 13.75 33.75H20Z" fill="black"/>
<path d="M13.75 27.5C15.4759 27.5 16.875 26.1009 16.875 24.375C16.875 22.6491 15.4759 21.25 13.75 21.25C12.0241 21.25 10.625 22.6491 10.625 24.375C10.625 26.1009 12.0241 27.5 13.75 27.5Z" stroke="black" stroke-width="2" stroke-linecap="round" stroke-linejoin="round"/>
<path d="M33.75 20C33.75 16.0218 32.1696 12.2064 29.3566 9.3934C26.5436 6.58035 22.7282 5 18.75 5C14.7718 5 10.9564 6.58035 8.1434 9.3934C5.33035 12.2064 3.75 16.0218 3.75 20V23.75C3.75 26.4022 4.80357 28.9457 6.67893 30.8211C8.5543 32.6964 11.0978 33.75 13.75 33.75C16.4022 33.75 18.9457 32.6964 20.8211 30.8211C22.6964 28.9457 23.75 26.4022 23.75 23.75V20H38.75" stroke="black" stroke-width="2" stroke-linecap="round" stroke-linejoin="round"/>
<path d="M13.75 33.75H20C22.6522 33.75 25.1957 32.6964 27.0711 30.8211C28.9464 28.9457 30 26.4022 30 23.75V20" stroke="black" stroke-width="2" stroke-linecap="round" stroke-linejoin="round"/>
</g>
<defs>
<clipPath id="clip0_434_2947">
<rect width="40" height="40" fill="white"/>
</clipPath>
</defs>
</svg>
