<svg width="24" height="24" viewBox="0 0 24 24" fill="none" xmlns="http://www.w3.org/2000/svg">
<g clip-path="url(#clip0_1478_3436)">
<path d="M12 21C16.9706 21 21 16.9706 21 12C21 7.02944 16.9706 3 12 3C7.02944 3 3 7.02944 3 12C3 16.9706 7.02944 21 12 21Z" stroke="#79747E" stroke-width="2" stroke-linecap="round" stroke-linejoin="round"/>
<path d="M5.625 5.64746C6.45861 6.48181 7.11954 7.47233 7.56996 8.56236C8.02039 9.65239 8.25148 10.8205 8.25 12C8.25148 13.1794 8.02039 14.3475 7.56996 15.4376C7.11954 16.5276 6.45861 17.5181 5.625 18.3525" stroke="#79747E" stroke-width="2" stroke-linecap="round" stroke-linejoin="round"/>
<path d="M18.3746 5.64746C16.6938 7.33435 15.75 9.61862 15.75 12C15.75 14.3813 16.6938 16.6656 18.3746 18.3525" stroke="#79747E" stroke-width="2" stroke-linecap="round" stroke-linejoin="round"/>
<path d="M3 12H21" stroke="#79747E" stroke-width="2" stroke-linecap="round" stroke-linejoin="round"/>
<path d="M12 3V21" stroke="#79747E" stroke-width="2" stroke-linecap="round" stroke-linejoin="round"/>
</g>
<defs>
<clipPath id="clip0_1478_3436">
<rect width="24" height="24" fill="white"/>
</clipPath>
</defs>
</svg>
