<svg width="23" height="21" viewBox="0 0 23 21" fill="none" xmlns="http://www.w3.org/2000/svg">
<path d="M18.875 6.125H2C1.70163 6.125 1.41548 6.24353 1.2045 6.4545C0.993526 6.66548 0.875 6.95163 0.875 7.25V11.75C0.878527 14.1146 1.77334 16.3909 3.38094 18.125H2C1.70163 18.125 1.41548 18.2435 1.2045 18.4545C0.993526 18.6655 0.875 18.9516 0.875 19.25C0.875 19.5484 0.993526 19.8345 1.2045 20.0455C1.41548 20.2565 1.70163 20.375 2 20.375H18.5C18.7984 20.375 19.0845 20.2565 19.2955 20.0455C19.5065 19.8345 19.625 19.5484 19.625 19.25C19.625 18.9516 19.5065 18.6655 19.2955 18.4545C19.0845 18.2435 18.7984 18.125 18.5 18.125H17.1191C17.9274 17.252 18.5636 16.2342 18.9941 15.125C20.0673 15.094 21.0862 14.6458 21.8342 13.8755C22.5822 13.1053 23.0004 12.0737 23 11V10.25C22.9988 9.15636 22.5638 8.10787 21.7904 7.33455C21.0171 6.56124 19.9686 6.12624 18.875 6.125ZM17.375 11.75C17.3726 13.0728 17.0033 14.3691 16.3082 15.4946C15.613 16.62 14.6193 17.5306 13.4375 18.125H7.0625C5.88071 17.5306 4.88698 16.62 4.19183 15.4946C3.49668 14.3691 3.12738 13.0728 3.125 11.75V8.375H17.375V11.75ZM20.75 11C20.7497 11.3744 20.6372 11.7401 20.4272 12.0501C20.2172 12.36 19.9192 12.6 19.5716 12.7391C19.6073 12.4106 19.6251 12.0804 19.625 11.75V8.5325C19.9592 8.67837 20.2437 8.91853 20.4435 9.22358C20.6433 9.52863 20.7498 9.88533 20.75 10.25V11ZM5.375 3.5V1.25C5.375 0.951631 5.49353 0.665483 5.7045 0.454505C5.91548 0.243526 6.20163 0.125 6.5 0.125C6.79837 0.125 7.08452 0.243526 7.2955 0.454505C7.50647 0.665483 7.625 0.951631 7.625 1.25V3.5C7.625 3.79837 7.50647 4.08452 7.2955 4.2955C7.08452 4.50647 6.79837 4.625 6.5 4.625C6.20163 4.625 5.91548 4.50647 5.7045 4.2955C5.49353 4.08452 5.375 3.79837 5.375 3.5ZM9.125 3.5V1.25C9.125 0.951631 9.24353 0.665483 9.4545 0.454505C9.66548 0.243526 9.95163 0.125 10.25 0.125C10.5484 0.125 10.8345 0.243526 11.0455 0.454505C11.2565 0.665483 11.375 0.951631 11.375 1.25V3.5C11.375 3.79837 11.2565 4.08452 11.0455 4.2955C10.8345 4.50647 10.5484 4.625 10.25 4.625C9.95163 4.625 9.66548 4.50647 9.4545 4.2955C9.24353 4.08452 9.125 3.79837 9.125 3.5ZM12.875 3.5V1.25C12.875 0.951631 12.9935 0.665483 13.2045 0.454505C13.4155 0.243526 13.7016 0.125 14 0.125C14.2984 0.125 14.5845 0.243526 14.7955 0.454505C15.0065 0.665483 15.125 0.951631 15.125 1.25V3.5C15.125 3.79837 15.0065 4.08452 14.7955 4.2955C14.5845 4.50647 14.2984 4.625 14 4.625C13.7016 4.625 13.4155 4.50647 13.2045 4.2955C12.9935 4.08452 12.875 3.79837 12.875 3.5Z" fill="#D9D9D9"/>
</svg>
