<svg width="40" height="40" viewBox="0 0 40 40" fill="none" xmlns="http://www.w3.org/2000/svg">
<path d="M22.0326 8.46322C22.0326 10.3759 20.482 11.9264 18.5694 11.9264C16.6567 11.9264 15.1062 10.3759 15.1062 8.46322C15.1062 6.55053 16.6567 5 18.5694 5C20.482 5 22.0326 6.55053 22.0326 8.46322Z" fill="black"/>
<path d="M18.4538 12.6534L18.5694 12.6515C18.6468 12.6515 18.7236 12.654 18.7998 12.659L20.0122 12.6597C21.0219 12.6597 22.0139 12.9246 22.8893 13.4278L23.1526 13.5788C22.2332 14.3195 21.6452 15.4545 21.6452 16.7269C21.6452 17.3448 21.7838 17.9302 22.0318 18.4539L22.0321 20.729H25.1105C26.3855 20.729 27.4193 21.7626 27.4193 23.0378V29.5535C27.4193 30.5098 26.644 31.2851 25.6877 31.2851C24.7313 31.2851 23.956 30.5098 23.956 29.5535L23.9558 24.1919L22.0326 24.192V24.1956H18.5694C16.6568 24.1956 15.1062 22.645 15.1062 20.7323L15.1054 16.9874L13.3606 17.9881L11.2305 21.6729C10.7801 22.4519 9.8156 22.7486 9.01358 22.3819L8.86493 22.3051C8.03708 21.8263 7.75414 20.767 8.23296 19.9391L10.5193 15.9862C10.7231 15.6338 11.0165 15.3416 11.3698 15.1391L14.3623 13.4239C15.236 12.9232 16.2255 12.6597 17.2325 12.6597L18.3393 12.659L18.4538 12.6534Z" fill="black"/>
<path d="M22.8834 17.4202C23.1938 18.6792 24.3306 19.6129 25.6856 19.6129C27.2795 19.6129 28.5716 18.3208 28.5716 16.7269C28.5716 15.133 27.2795 13.8409 25.6856 13.8409C25.1678 13.8409 24.6818 13.9772 24.2617 14.2161C23.3885 14.7122 22.7996 15.6508 22.7996 16.7269C22.7996 16.9659 22.8285 17.1981 22.8834 17.4202Z" fill="black"/>
<path d="M29.3383 14.9976L29.8675 14.9982C30.8239 14.9982 31.5991 15.7735 31.5991 16.7298C31.5991 17.6862 30.8239 18.4614 29.8675 18.4614L29.3356 18.4621C29.586 17.9364 29.7261 17.348 29.7261 16.7269C29.7261 16.1081 29.587 15.5218 29.3383 14.9976Z" fill="black"/>
<path d="M22.0315 27.116L22.0312 25.3473H18.5668L18.5671 26.8066L15.3381 32.4023C14.86 33.2307 15.144 34.2897 15.9723 34.7678C16.8006 35.2459 17.8595 34.962 18.3377 34.1337L21.7223 28.2701C21.9248 27.9192 22.0315 27.5212 22.0315 27.116Z" fill="black"/>
</svg>
