<svg width="22" height="22" viewBox="0 0 22 22" fill="none" xmlns="http://www.w3.org/2000/svg">
<path d="M11 0.875C8.99747 0.875 7.0399 1.46882 5.37486 2.58137C3.70981 3.69392 2.41206 5.27523 1.64572 7.12533C0.879387 8.97543 0.678878 11.0112 1.06955 12.9753C1.46023 14.9393 2.42454 16.7435 3.84055 18.1595C5.25656 19.5755 7.06066 20.5398 9.02471 20.9305C10.9888 21.3211 13.0246 21.1206 14.8747 20.3543C16.7248 19.5879 18.3061 18.2902 19.4186 16.6251C20.5312 14.9601 21.125 13.0025 21.125 11C21.122 8.3156 20.0543 5.74199 18.1562 3.84383C16.258 1.94567 13.6844 0.877978 11 0.875ZM11 18.875C9.44248 18.875 7.91993 18.4131 6.62489 17.5478C5.32985 16.6825 4.32049 15.4526 3.72445 14.0136C3.12841 12.5747 2.97246 10.9913 3.27632 9.46366C3.58018 7.93606 4.3302 6.53287 5.43154 5.43153C6.53288 4.3302 7.93607 3.58017 9.46367 3.27632C10.9913 2.97246 12.5747 3.12841 14.0136 3.72445C15.4526 4.32049 16.6825 5.32985 17.5478 6.62488C18.4131 7.91992 18.875 9.44247 18.875 11C18.8728 13.0879 18.0424 15.0896 16.566 16.566C15.0896 18.0424 13.0879 18.8728 11 18.875ZM11 5.375C10.2134 5.3748 9.44308 5.59952 8.77996 6.02268C8.11684 6.44584 7.58854 7.04978 7.25736 7.7633C6.92617 8.47681 6.8059 9.27015 6.91074 10.0498C7.01558 10.8294 7.34115 11.5628 7.84907 12.1634L6.92469 15.1691C6.8729 15.3373 6.86133 15.5154 6.8909 15.689C6.92048 15.8625 6.99038 16.0267 7.09497 16.1684C7.19957 16.31 7.33595 16.4251 7.49314 16.5044C7.65033 16.5837 7.82394 16.625 8 16.625H14C14.1761 16.625 14.3497 16.5837 14.5069 16.5044C14.6641 16.4251 14.8004 16.31 14.905 16.1684C15.0096 16.0267 15.0795 15.8625 15.1091 15.689C15.1387 15.5154 15.1271 15.3373 15.0753 15.1691L14.1509 12.1634C14.6589 11.5628 14.9844 10.8294 15.0893 10.0498C15.1941 9.27015 15.0738 8.47681 14.7427 7.7633C14.4115 7.04978 13.8832 6.44584 13.22 6.02268C12.5569 5.59952 11.7866 5.3748 11 5.375ZM11.7997 12.1728L12.4766 14.375H9.52344L10.2003 12.1728C10.2662 11.957 10.2657 11.7264 10.1988 11.5109C10.1319 11.2954 10.0018 11.105 9.82532 10.9644C9.52207 10.7216 9.30172 10.3906 9.19472 10.0172C9.08772 9.64372 9.09935 9.24626 9.22801 8.87972C9.35667 8.51318 9.596 8.19564 9.91292 7.971C10.2298 7.74636 10.6087 7.6257 10.9972 7.6257C11.3857 7.6257 11.7645 7.74636 12.0815 7.971C12.3984 8.19564 12.6377 8.51318 12.7664 8.87972C12.895 9.24626 12.9067 9.64372 12.7997 10.0172C12.6927 10.3906 12.4723 10.7216 12.1691 10.9644C11.9936 11.1057 11.8645 11.2964 11.7987 11.5118C11.7328 11.7273 11.7332 11.9576 11.7997 12.1728Z" fill="#D9D9D9"/>
</svg>
