<svg width="24" height="20" viewBox="0 0 24 20" fill="none" xmlns="http://www.w3.org/2000/svg">
<path d="M20.625 10.625C20.3702 10.624 20.1162 10.6555 19.8694 10.7188C19.7484 6.82438 17.1178 4.87625 15.1819 3.44562C14.0794 2.63094 13.125 1.92594 13.125 1.25C13.125 0.951631 13.0065 0.665483 12.7955 0.454505C12.5845 0.243526 12.2984 0.125 12 0.125C11.7016 0.125 11.4155 0.243526 11.2045 0.454505C10.9935 0.665483 10.875 0.951631 10.875 1.25C10.875 1.92594 9.92062 2.63094 8.8125 3.44844C6.87844 4.87906 4.24781 6.82344 4.125 10.7216C3.68179 10.6071 3.21827 10.5956 2.76994 10.688C2.3216 10.7803 1.90034 10.974 1.5384 11.2542C1.17646 11.5344 0.883445 11.8938 0.681793 12.3047C0.480141 12.7156 0.375198 13.1673 0.375 13.625V18.5C0.375 18.7984 0.493526 19.0845 0.704505 19.2955C0.915483 19.5065 1.20163 19.625 1.5 19.625H22.5C22.7984 19.625 23.0845 19.5065 23.2955 19.2955C23.5065 19.0845 23.625 18.7984 23.625 18.5V13.625C23.625 12.8294 23.3089 12.0663 22.7463 11.5037C22.1837 10.9411 21.4206 10.625 20.625 10.625ZM4.125 17.375H2.625V13.625C2.625 13.4261 2.70402 13.2353 2.84467 13.0947C2.98532 12.954 3.17609 12.875 3.375 12.875C3.57391 12.875 3.76468 12.954 3.90533 13.0947C4.04598 13.2353 4.125 13.4261 4.125 13.625V17.375ZM10.1541 5.25688C10.8103 4.775 11.4666 4.28562 12 3.73156C12.5325 4.28562 13.1944 4.775 13.8459 5.25688C15.45 6.44375 17.1 7.66625 17.5219 9.875H6.47812C6.9 7.66625 8.55 6.44375 10.1541 5.25688ZM17.625 17.375H15.375V14.75C15.375 14.4516 15.2565 14.1655 15.0455 13.9545C14.8345 13.7435 14.5484 13.625 14.25 13.625C13.9516 13.625 13.6655 13.7435 13.4545 13.9545C13.2435 14.1655 13.125 14.4516 13.125 14.75V17.375H10.875V14.75C10.875 14.4516 10.7565 14.1655 10.5455 13.9545C10.3345 13.7435 10.0484 13.625 9.75 13.625C9.45163 13.625 9.16548 13.7435 8.9545 13.9545C8.74353 14.1655 8.625 14.4516 8.625 14.75V17.375H6.375V12.125H17.625V17.375ZM21.375 17.375H19.875V13.625C19.875 13.4261 19.954 13.2353 20.0947 13.0947C20.2353 12.954 20.4261 12.875 20.625 12.875C20.8239 12.875 21.0147 12.954 21.1553 13.0947C21.296 13.2353 21.375 13.4261 21.375 13.625V17.375Z" fill="#D9D9D9"/>
</svg>
