<svg width="24" height="18" viewBox="0 0 24 18" fill="none" xmlns="http://www.w3.org/2000/svg">
<path d="M21.6797 5.0625C22.0312 5.25781 22.3516 5.49609 22.6406 5.77734C22.9297 6.05859 23.1719 6.37109 23.3672 6.71484C23.5625 7.05859 23.7188 7.42188 23.8359 7.80469C23.9531 8.1875 24.0078 8.58594 24 9H22.5C22.5 8.59375 22.4219 8.20703 22.2656 7.83984C22.1094 7.47266 21.8945 7.15625 21.6211 6.89062C21.3477 6.625 21.0273 6.41016 20.6602 6.24609C20.293 6.08203 19.9062 6 19.5 6C19.0859 6 18.6992 6.07812 18.3398 6.23438C17.9805 6.39062 17.6641 6.60547 17.3906 6.87891C17.1172 7.15234 16.9023 7.47266 16.7461 7.83984C16.5898 8.20703 16.5078 8.59375 16.5 9C16.5 9.71094 16.3398 10.3867 16.0195 11.0273C15.6992 11.668 15.25 12.1992 14.6719 12.6211C15.1797 12.8789 15.6367 13.1953 16.043 13.5703C16.4492 13.9453 16.8008 14.3672 17.0977 14.8359C17.3945 15.3047 17.6172 15.8047 17.7656 16.3359C17.9141 16.8672 17.9922 17.4219 18 18H16.5C16.5 17.3828 16.3828 16.8008 16.1484 16.2539C15.9141 15.707 15.5898 15.2305 15.1758 14.8242C14.7617 14.418 14.2852 14.0977 13.7461 13.8633C13.207 13.6289 12.625 13.5078 12 13.5C11.3828 13.5 10.8008 13.6172 10.2539 13.8516C9.70703 14.0859 9.23047 14.4102 8.82422 14.8242C8.41797 15.2383 8.09766 15.7148 7.86328 16.2539C7.62891 16.793 7.50781 17.375 7.5 18H6C6 17.4297 6.07812 16.8789 6.23438 16.3477C6.39062 15.8164 6.61328 15.3164 6.90234 14.8477C7.19141 14.3789 7.53906 13.957 7.94531 13.582C8.35156 13.207 8.8125 12.8867 9.32812 12.6211C8.75781 12.1992 8.3125 11.668 7.99219 11.0273C7.67188 10.3867 7.50781 9.71094 7.5 9C7.5 8.59375 7.42188 8.20703 7.26562 7.83984C7.10938 7.47266 6.89453 7.15625 6.62109 6.89062C6.34766 6.625 6.02734 6.41016 5.66016 6.24609C5.29297 6.08203 4.90625 6 4.5 6C4.08594 6 3.69922 6.07812 3.33984 6.23438C2.98047 6.39062 2.66406 6.60547 2.39062 6.87891C2.11719 7.15234 1.90234 7.47266 1.74609 7.83984C1.58984 8.20703 1.50781 8.59375 1.5 9H0C0 8.59375 0.0546875 8.19922 0.164062 7.81641C0.273438 7.43359 0.425781 7.07031 0.621094 6.72656C0.816406 6.38281 1.0625 6.07031 1.35938 5.78906C1.65625 5.50781 1.97656 5.26562 2.32031 5.0625C2.0625 4.78906 1.86328 4.47266 1.72266 4.11328C1.58203 3.75391 1.50781 3.38281 1.5 3C1.5 2.59375 1.57812 2.20703 1.73438 1.83984C1.89062 1.47266 2.10547 1.15625 2.37891 0.890625C2.65234 0.625 2.96875 0.410156 3.32812 0.246094C3.6875 0.0820312 4.07812 0 4.5 0C4.90625 0 5.29297 0.078125 5.66016 0.234375C6.02734 0.390625 6.34375 0.605469 6.60938 0.878906C6.875 1.15234 7.08984 1.47266 7.25391 1.83984C7.41797 2.20703 7.5 2.59375 7.5 3C7.5 3.38281 7.42969 3.75391 7.28906 4.11328C7.14844 4.47266 6.94531 4.78906 6.67969 5.0625C7.32031 5.41406 7.84375 5.89844 8.25 6.51562C8.67188 5.89062 9.21094 5.39844 9.86719 5.03906C10.5234 4.67969 11.2344 4.5 12 4.5C12.7578 4.5 13.4648 4.67969 14.1211 5.03906C14.7773 5.39844 15.3203 5.89062 15.75 6.51562C16.1562 5.89844 16.6797 5.41406 17.3203 5.0625C17.0625 4.78906 16.8633 4.47266 16.7227 4.11328C16.582 3.75391 16.5078 3.38281 16.5 3C16.5 2.59375 16.5781 2.20703 16.7344 1.83984C16.8906 1.47266 17.1055 1.15625 17.3789 0.890625C17.6523 0.625 17.9688 0.410156 18.3281 0.246094C18.6875 0.0820312 19.0781 0 19.5 0C19.9062 0 20.293 0.078125 20.6602 0.234375C21.0273 0.390625 21.3438 0.605469 21.6094 0.878906C21.875 1.15234 22.0898 1.47266 22.2539 1.83984C22.418 2.20703 22.5 2.59375 22.5 3C22.5 3.38281 22.4297 3.75391 22.2891 4.11328C22.1484 4.47266 21.9453 4.78906 21.6797 5.0625ZM3 3C3 3.21094 3.03906 3.40625 3.11719 3.58594C3.19531 3.76562 3.30078 3.92188 3.43359 4.05469C3.56641 4.1875 3.72656 4.29688 3.91406 4.38281C4.10156 4.46875 4.29688 4.50781 4.5 4.5C4.71094 4.5 4.90625 4.46094 5.08594 4.38281C5.26562 4.30469 5.42188 4.19922 5.55469 4.06641C5.6875 3.93359 5.79688 3.77344 5.88281 3.58594C5.96875 3.39844 6.00781 3.20312 6 3C6 2.78906 5.96094 2.59375 5.88281 2.41406C5.80469 2.23438 5.69922 2.07812 5.56641 1.94531C5.43359 1.8125 5.27344 1.70312 5.08594 1.61719C4.89844 1.53125 4.70312 1.49219 4.5 1.5C4.28906 1.5 4.09375 1.53906 3.91406 1.61719C3.73438 1.69531 3.57812 1.80078 3.44531 1.93359C3.3125 2.06641 3.20312 2.22656 3.11719 2.41406C3.03125 2.60156 2.99219 2.79688 3 3ZM12 12C12.4062 12 12.793 11.9219 13.1602 11.7656C13.5273 11.6094 13.8438 11.3945 14.1094 11.1211C14.375 10.8477 14.5898 10.5312 14.7539 10.1719C14.918 9.8125 15 9.42188 15 9C15 8.59375 14.9219 8.20703 14.7656 7.83984C14.6094 7.47266 14.3945 7.15625 14.1211 6.89062C13.8477 6.625 13.5273 6.41016 13.1602 6.24609C12.793 6.08203 12.4062 6 12 6C11.5859 6 11.1992 6.07812 10.8398 6.23438C10.4805 6.39062 10.1641 6.60547 9.89062 6.87891C9.61719 7.15234 9.40234 7.47266 9.24609 7.83984C9.08984 8.20703 9.00781 8.59375 9 9C9 9.41406 9.07812 9.80078 9.23438 10.1602C9.39062 10.5195 9.60547 10.8359 9.87891 11.1094C10.1523 11.3828 10.4688 11.5977 10.8281 11.7539C11.1875 11.9102 11.5781 11.9922 12 12ZM18 3C18 3.21094 18.0391 3.40625 18.1172 3.58594C18.1953 3.76562 18.3008 3.92188 18.4336 4.05469C18.5664 4.1875 18.7266 4.29688 18.9141 4.38281C19.1016 4.46875 19.2969 4.50781 19.5 4.5C19.7109 4.5 19.9062 4.46094 20.0859 4.38281C20.2656 4.30469 20.4219 4.19922 20.5547 4.06641C20.6875 3.93359 20.7969 3.77344 20.8828 3.58594C20.9688 3.39844 21.0078 3.20312 21 3C21 2.78906 20.9609 2.59375 20.8828 2.41406C20.8047 2.23438 20.6992 2.07812 20.5664 1.94531C20.4336 1.8125 20.2734 1.70312 20.0859 1.61719C19.8984 1.53125 19.7031 1.49219 19.5 1.5C19.2891 1.5 19.0938 1.53906 18.9141 1.61719C18.7344 1.69531 18.5781 1.80078 18.4453 1.93359C18.3125 2.06641 18.2031 2.22656 18.1172 2.41406C18.0312 2.60156 17.9922 2.79688 18 3Z" fill="#79747E"/>
</svg>
