<svg width="22" height="22" viewBox="0 0 22 22" fill="none" xmlns="http://www.w3.org/2000/svg">
<path d="M11 0.875C8.99747 0.875 7.0399 1.46882 5.37486 2.58137C3.70981 3.69392 2.41206 5.27523 1.64572 7.12533C0.879387 8.97543 0.678878 11.0112 1.06955 12.9753C1.46023 14.9393 2.42454 16.7435 3.84055 18.1595C5.25656 19.5755 7.06066 20.5398 9.02471 20.9305C10.9888 21.3211 13.0246 21.1206 14.8747 20.3543C16.7248 19.5879 18.3061 18.2902 19.4186 16.6251C20.5312 14.9601 21.125 13.0025 21.125 11C21.122 8.3156 20.0543 5.74199 18.1562 3.84383C16.258 1.94567 13.6844 0.877978 11 0.875ZM11 18.875C9.44248 18.875 7.91993 18.4131 6.62489 17.5478C5.32985 16.6825 4.32049 15.4526 3.72445 14.0136C3.12841 12.5747 2.97246 10.9913 3.27632 9.46366C3.58018 7.93606 4.3302 6.53287 5.43154 5.43153C6.53288 4.3302 7.93607 3.58017 9.46367 3.27632C10.9913 2.97246 12.5747 3.12841 14.0136 3.72445C15.4526 4.32049 16.6825 5.32985 17.5478 6.62488C18.4131 7.91992 18.875 9.44247 18.875 11C18.8728 13.0879 18.0424 15.0896 16.566 16.566C15.0896 18.0424 13.0879 18.8728 11 18.875ZM11.75 6.125H8.75C8.45164 6.125 8.16549 6.24353 7.95451 6.4545C7.74353 6.66548 7.625 6.95163 7.625 7.25V14.75C7.625 15.0484 7.74353 15.3345 7.95451 15.5455C8.16549 15.7565 8.45164 15.875 8.75 15.875C9.04837 15.875 9.33452 15.7565 9.5455 15.5455C9.75648 15.3345 9.875 15.0484 9.875 14.75V13.625H11.75C12.7446 13.625 13.6984 13.2299 14.4017 12.5267C15.1049 11.8234 15.5 10.8696 15.5 9.875C15.5 8.88044 15.1049 7.92661 14.4017 7.22335C13.6984 6.52009 12.7446 6.125 11.75 6.125ZM11.75 11.375H9.875V8.375H11.75C12.1478 8.375 12.5294 8.53304 12.8107 8.81434C13.092 9.09564 13.25 9.47718 13.25 9.875C13.25 10.2728 13.092 10.6544 12.8107 10.9357C12.5294 11.217 12.1478 11.375 11.75 11.375Z" fill="#D9D9D9"/>
</svg>
