<svg width="40" height="40" viewBox="0 0 40 40" fill="none" xmlns="http://www.w3.org/2000/svg">
<g clip-path="url(#clip0_434_2859)">
<path opacity="0.2" d="M12.7188 32.2814C10.3568 31.0102 8.38845 29.1159 7.02762 26.8044C5.66678 24.4929 4.9655 21.8526 5 19.1705C5.10781 11.4283 11.4266 5.10798 19.1688 5.00173C21.851 4.9668 24.4914 5.6677 26.8032 7.02827C29.115 8.38884 31.0097 10.357 32.2813 12.7189L12.7188 32.2814Z" fill="#220000"/>
<path d="M21.0281 32.2796C20.454 32.8581 19.7464 33.2865 18.9676 33.5268C18.1888 33.7672 17.3628 33.8121 16.5625 33.6577C9.90625 32.3436 4.90313 26.2374 5 19.1702C5.10781 11.428 11.4266 5.10768 19.1688 5.00143C26.2359 4.90299 32.3359 9.90612 33.6562 16.5639C33.8107 17.3642 33.7657 18.1902 33.5254 18.969C33.285 19.7478 32.8567 20.4555 32.2781 21.0296L28.5938 24.7202L35.7328 29.8202C35.8803 29.9258 36.003 30.0622 36.0925 30.22C36.1819 30.3778 36.2359 30.5532 36.2508 30.734C36.2657 30.9148 36.241 31.0966 36.1786 31.2669C36.1161 31.4372 36.0173 31.5919 35.8891 31.7202L31.7188 35.8842C31.5905 36.0125 31.4358 36.1113 31.2655 36.1737C31.0952 36.2362 30.9134 36.2609 30.7326 36.246C30.5518 36.2311 30.3764 36.1771 30.2186 36.0876C30.0608 35.9982 29.9244 35.8755 29.8187 35.728L24.7203 28.5936L21.0281 32.2796Z" stroke="black" stroke-width="2" stroke-linecap="round" stroke-linejoin="round"/>
<path d="M32.2813 12.7188L12.7188 32.2813" stroke="black" stroke-width="2" stroke-linecap="round" stroke-linejoin="round"/>
</g>
<defs>
<clipPath id="clip0_434_2859">
<rect width="40" height="40" fill="white"/>
</clipPath>
</defs>
</svg>
