<svg fill="none" height="32" viewBox="0 0 32 32" width="32" xmlns="http://www.w3.org/2000/svg"><path d="m15.9989 29.9978c9.3344 0 13.9989-6.2675 13.9989-13.9989 0-7.73139-4.6645-13.9989-13.9989-13.9989-9.33447 0-13.9989 6.26751-13.9989 13.9989 0 7.7314 4.66443 13.9989 13.9989 13.9989z" fill="#ffb02e"/><path d="m15 16.5c0 2.4853-2.0147 4.5-4.5 4.5-2.48528 0-4.5-2.0147-4.5-4.5s2.01472-4.5 4.5-4.5c2.4853 0 4.5 2.0147 4.5 4.5z" fill="#fff"/><path d="m25.96 16.48c0 2.4742-2.0058 4.48-4.48 4.48s-4.48-2.0058-4.48-4.48 2.0058-4.48 4.48-4.48 4.48 2.0058 4.48 4.48z" fill="#fff"/><path d="m10.88 12c-2.14 0-3.88 1.74-3.88 3.88s1.74 3.88 3.88 3.88 3.88-1.74 3.88-3.88-1.74-3.88-3.88-3.88z" fill="#402a32"/><path d="m20.88 12c-2.14 0-3.88 1.74-3.88 3.88s1.74 3.88 3.88 3.88 3.88-1.74 3.88-3.88-1.74-3.88-3.88-3.88z" fill="#402a32"/><path d="m13.1626 15.9369c.7454-.237 1.0491-1.0703.681-1.8653-.3681-.7874-1.2608-1.2461-2.0062-1.0091s-1.0491 1.0703-.681 1.8653 1.2608 1.2461 2.0062 1.0091z" fill="#fff"/><path d="m23.1626 15.9369c.7454-.237 1.0491-1.0703.681-1.8653-.3681-.7874-1.27-1.2461-2.0062-1.0091-.7454.237-1.0491 1.0703-.681 1.8653s1.2608 1.2461 2.0062 1.0091z" fill="#fff"/><g fill="#402a32"><path d="m8.95171 9.19972c.54044-.47466.87504-1.12654 1.06569-1.83043.0722-.26654.3468-.42409.6133-.3519.2666.07219.4241.34678.3519.61332-.2249.8305-.6403 1.67862-1.37099 2.32036-.7386.64873-1.75688 1.04893-3.11161 1.04893-.27614 0-.5-.2239-.5-.5s.22386-.5.5-.5c1.14527 0 1.9192-.33258 2.45171-.80028z"/><path d="m14.8961 25.4453c-.002.0028-.0025.0036-.0017.0019-.247.494-.8476.6942-1.3416.4472s-.6942-.8476-.4472-1.3416c.3285-.657 1.299-1.5528 2.8944-1.5528s2.5659.8958 2.8944 1.5528c.247.494.0468 1.0946-.4472 1.3416s-1.0946.0468-1.3416-.4472c.0001.0002.0003.0007 0 0l-.0017-.0019c-.0129-.018-.0859-.1207-.2512-.2253-.1731-.1096-.4466-.22-.8527-.22s-.6796.1104-.8527.22c-.1653.1046-.2383.2073-.2512.2253z"/><path d="m21.9826 7.36929c.1907.70389.5253 1.35577 1.0657 1.83043.5325.4677 1.3064.80028 2.4517.80028.2761 0 .5.2239.5.5s-.2239.5-.5.5c-1.3547 0-2.373-.4002-3.1116-1.04893-.7307-.64174-1.1461-1.48986-1.371-2.32036-.0722-.26654.0853-.54113.3519-.61332.2665-.07219.5411.08536.6133.3519z"/></g></svg>