<svg width="40" height="40" viewBox="0 0 40 40" fill="none" xmlns="http://www.w3.org/2000/svg">
<path d="M14.6429 26.1429H10.3572C9.76791 26.1429 9.28577 25.6607 9.28577 25.0714V19.7143C9.28577 19.125 9.76791 18.6429 10.3572 18.6429H14.6429C15.2322 18.6429 15.7143 19.125 15.7143 19.7143V25.0714C15.7143 25.6607 15.2322 26.1429 14.6429 26.1429ZM11.4286 24H13.5715V20.7857H11.4286V24Z" fill="black"/>
<path d="M29.6429 26.1429H25.3572C24.7679 26.1429 24.2858 25.6607 24.2858 25.0714V19.7143C24.2858 19.125 24.7679 18.6429 25.3572 18.6429H29.6429C30.2322 18.6429 30.7143 19.125 30.7143 19.7143V25.0714C30.7143 25.6607 30.2322 26.1429 29.6429 26.1429ZM26.4286 24H28.5715V20.7857H26.4286V24Z" fill="black"/>
<path d="M33.9286 31.5H6.07143C5.48214 31.5 5 31.0179 5 30.4286V10.0714C5 9.48214 5.48214 9 6.07143 9H33.9286C34.5179 9 35 9.48214 35 10.0714V30.4286C35 31.0179 34.5179 31.5 33.9286 31.5ZM7.14286 29.3571H32.8571V11.1429H7.14286V29.3571Z" fill="black"/>
<path d="M33.9286 15.4286H6.07143C5.48214 15.4286 5 14.9464 5 14.3571C5 13.7678 5.48214 13.2857 6.07143 13.2857H33.9286C34.5179 13.2857 35 13.7678 35 14.3571C35 14.9464 34.5179 15.4286 33.9286 15.4286Z" fill="black"/>
<path d="M20 15.4286C19.4107 15.4286 18.9286 14.9464 18.9286 14.3571V10.0714C18.9286 9.48214 19.4107 9 20 9C20.5893 9 21.0714 9.48214 21.0714 10.0714V14.3571C21.0714 14.9464 20.5893 15.4286 20 15.4286Z" fill="black"/>
<path d="M21.0715 24H18.9286C18.3393 24 17.8572 23.5179 17.8572 22.9286C17.8572 22.3393 18.3393 21.8571 18.9286 21.8571H21.0715C21.6607 21.8571 22.1429 22.3393 22.1429 22.9286C22.1429 23.5179 21.6607 24 21.0715 24Z" fill="black"/>
</svg>
