<svg width="24" height="22" viewBox="0 0 24 22" fill="none" xmlns="http://www.w3.org/2000/svg">
<path d="M6.375 20.125C6.375 20.4217 6.28703 20.7117 6.1222 20.9584C5.95738 21.205 5.72311 21.3973 5.44903 21.5108C5.17494 21.6244 4.87334 21.6541 4.58237 21.5962C4.29139 21.5383 4.02412 21.3954 3.81434 21.1857C3.60456 20.9759 3.4617 20.7086 3.40382 20.4176C3.34594 20.1267 3.37565 19.8251 3.48918 19.551C3.60271 19.2769 3.79497 19.0426 4.04165 18.8778C4.28832 18.713 4.57833 18.625 4.875 18.625C5.27283 18.625 5.65436 18.783 5.93566 19.0643C6.21697 19.3456 6.375 19.7272 6.375 20.125ZM7.875 15.625C7.57833 15.625 7.28832 15.713 7.04165 15.8778C6.79497 16.0426 6.60271 16.2769 6.48918 16.551C6.37565 16.8251 6.34594 17.1267 6.40382 17.4176C6.4617 17.7086 6.60456 17.9759 6.81434 18.1857C7.02412 18.3954 7.29139 18.5383 7.58237 18.5962C7.87334 18.6541 8.17494 18.6244 8.44903 18.5108C8.72311 18.3973 8.95738 18.205 9.1222 17.9584C9.28703 17.7117 9.375 17.4217 9.375 17.125C9.375 16.7272 9.21696 16.3456 8.93566 16.0643C8.65436 15.783 8.27283 15.625 7.875 15.625ZM1.875 15.625C1.57833 15.625 1.28832 15.713 1.04165 15.8778C0.794972 16.0426 0.602713 16.2769 0.489181 16.551C0.37565 16.8251 0.345945 17.1267 0.403823 17.4176C0.461701 17.7086 0.604562 17.9759 0.814341 18.1857C1.02412 18.3954 1.29139 18.5383 1.58237 18.5962C1.87334 18.6541 2.17494 18.6244 2.44903 18.5108C2.72311 18.3973 2.95738 18.205 3.12221 17.9584C3.28703 17.7117 3.375 17.4217 3.375 17.125C3.375 16.7272 3.21697 16.3456 2.93566 16.0643C2.65436 15.783 2.27283 15.625 1.875 15.625ZM4.875 15.625C5.17167 15.625 5.46168 15.537 5.70836 15.3722C5.95503 15.2074 6.14729 14.9731 6.26082 14.699C6.37435 14.4249 6.40406 14.1233 6.34618 13.8324C6.2883 13.5414 6.14544 13.2741 5.93566 13.0643C5.72588 12.8546 5.45861 12.7117 5.16764 12.6538C4.87666 12.5959 4.57506 12.6256 4.30098 12.7392C4.02689 12.8527 3.79262 13.045 3.6278 13.2916C3.46297 13.5383 3.375 13.8283 3.375 14.125C3.375 14.5228 3.53304 14.9044 3.81434 15.1857C4.09564 15.467 4.47718 15.625 4.875 15.625ZM24 1.75C24 2.04837 23.8815 2.33452 23.6705 2.5455C23.4595 2.75647 23.1734 2.875 22.875 2.875H20.7188L18.2991 5.29281L16.2881 17.0622C16.2306 17.4014 16.0809 17.7183 15.8553 17.9781C15.6298 18.2378 15.3371 18.4306 15.0093 18.5351C14.6815 18.6397 14.3313 18.652 13.9969 18.5708C13.6626 18.4896 13.357 18.318 13.1138 18.0747L3.92625 8.88719C3.6824 8.6437 3.51037 8.33773 3.42904 8.00286C3.34772 7.668 3.36025 7.3172 3.46526 6.98899C3.57027 6.66078 3.7637 6.36786 4.0243 6.1424C4.28491 5.91694 4.6026 5.76765 4.9425 5.71094L16.7081 3.70094L19.4541 0.954063C19.5586 0.849624 19.6827 0.766808 19.8193 0.710347C19.9559 0.653885 20.1022 0.624884 20.25 0.625H22.875C23.1734 0.625 23.4595 0.743527 23.6705 0.954505C23.8815 1.16548 24 1.45163 24 1.75ZM15.8738 6.12625L6.03 7.80813L14.1928 15.9709L15.8738 6.12625Z" fill="#D9D9D9"/>
</svg>
