<svg width="20" height="22" viewBox="0 0 20 22" fill="none" xmlns="http://www.w3.org/2000/svg">
<path d="M10 5.375C10 5.67337 9.88147 5.95952 9.6705 6.1705C9.45952 6.38147 9.17337 6.5 8.875 6.5H7.375C7.07663 6.5 6.79048 6.38147 6.5795 6.1705C6.36853 5.95952 6.25 5.67337 6.25 5.375C6.25 5.07663 6.36853 4.79048 6.5795 4.5795C6.79048 4.36853 7.07663 4.25 7.375 4.25H8.875C9.17337 4.25 9.45952 4.36853 9.6705 4.5795C9.88147 4.79048 10 5.07663 10 5.375ZM14.5141 17.3394L14.8563 19.7347C14.8943 20.0006 14.8747 20.2717 14.7988 20.5294C14.723 20.7871 14.5926 21.0255 14.4166 21.2285C14.2406 21.4314 14.023 21.5942 13.7786 21.7058C13.5342 21.8173 13.2687 21.875 13 21.875H7C6.73134 21.875 6.46582 21.8173 6.22141 21.7058C5.977 21.5942 5.75942 21.4314 5.5834 21.2285C5.40737 21.0255 5.27702 20.7871 5.20117 20.5294C5.12532 20.2717 5.10573 20.0006 5.14375 19.7347L5.48594 17.3394C4.01488 16.5303 2.78786 15.3413 1.93286 13.8965C1.07786 12.4517 0.626207 10.8039 0.625 9.125C0.625 8.82663 0.743526 8.54048 0.954505 8.3295C1.16548 8.11853 1.45163 8 1.75 8H2.875V2.75C2.875 2.25272 3.07254 1.77581 3.42417 1.42417C3.77581 1.07254 4.25272 0.875 4.75 0.875H15.25C15.7473 0.875 16.2242 1.07254 16.5758 1.42417C16.9275 1.77581 17.125 2.25272 17.125 2.75V8H18.25C18.5484 8 18.8345 8.11853 19.0455 8.3295C19.2565 8.54048 19.375 8.82663 19.375 9.125C19.3738 10.8039 18.9221 12.4517 18.0671 13.8965C17.2121 15.3413 15.9851 16.5303 14.5141 17.3394ZM5.125 8H14.875V3.125H5.125V8ZM12.3634 18.1981C10.8135 18.6006 9.18648 18.6006 7.63656 18.1981L7.43219 19.625H12.5678L12.3634 18.1981ZM17.0359 10.25H2.96875C3.23592 11.9238 4.09106 13.4476 5.38062 14.5476C6.67018 15.6477 8.30967 16.252 10.0047 16.252C11.6997 16.252 13.3392 15.6477 14.6288 14.5476C15.9183 13.4476 16.7735 11.9238 17.0406 10.25H17.0359Z" fill="#D9D9D9"/>
</svg>
