<svg width="24" height="24" viewBox="0 0 24 24" fill="none" xmlns="http://www.w3.org/2000/svg">
<g clip-path="url(#clip0_1478_3445)">
<path fill-rule="evenodd" clip-rule="evenodd" d="M2.63806 4.92924C2.93589 4.63149 3.30412 4.41381 3.70856 4.29639C4.113 4.17898 4.54055 4.16564 4.95152 4.25761C5.3625 4.34958 5.74358 4.54388 6.0594 4.82248C6.37522 5.10108 6.61554 5.45494 6.75806 5.85124C7.98464 5.36149 9.32475 5.22875 10.6236 5.46835C11.9224 5.70794 13.1269 6.31009 14.0981 7.20524L14.3051 7.40324L22.0831 15.1822C22.2552 15.3544 22.3587 15.5835 22.3739 15.8266C22.3892 16.0696 22.3153 16.3098 22.1661 16.5022L22.0831 16.5962L19.9621 18.7172C19.8122 18.8671 19.6186 18.9655 19.4092 18.9982C19.1998 19.0309 18.9855 18.9963 18.7971 18.8992L18.6861 18.8322L15.1021 16.3522C14.8687 16.6869 14.6031 17.0039 14.3051 17.3032C13.109 18.5012 11.5194 19.2251 9.83054 19.341C8.1417 19.4569 6.46809 18.9568 5.11963 17.9335C3.77117 16.9101 2.83924 15.4328 2.49642 13.775C2.1536 12.1173 2.42312 10.3915 3.25506 8.91724C2.90599 8.73636 2.60451 8.4757 2.37509 8.15644C2.14567 7.83718 1.99478 7.46831 1.93467 7.07979C1.87456 6.69127 1.90692 6.29405 2.02914 5.92038C2.15136 5.54672 2.35997 5.20714 2.63806 4.92924ZM5.82006 8.81824C5.30531 9.33407 4.90954 9.95618 4.66045 10.641C4.41137 11.3259 4.31499 12.0569 4.37807 12.7829C4.44115 13.5088 4.66216 14.2123 5.02562 14.8439C5.38909 15.4755 5.88623 16.02 6.48222 16.4394C7.07822 16.8587 7.75868 17.1427 8.47594 17.2714C9.19321 17.4002 9.92995 17.3706 10.6346 17.1847C11.3392 16.9988 11.9947 16.6612 12.5551 16.1954C13.1156 15.7296 13.5674 15.147 13.8791 14.4882C13.941 14.357 14.0307 14.2408 14.1421 14.1477C14.2534 14.0546 14.3837 13.9868 14.5239 13.9492C14.664 13.9115 14.8107 13.9048 14.9537 13.9295C15.0967 13.9542 15.2327 14.0097 15.3521 14.0922L19.1381 16.7122L19.9621 15.8892L12.8911 8.81824C11.9534 7.88058 10.6816 7.3538 9.35556 7.3538C8.02949 7.3538 6.75774 7.88058 5.82006 8.81824ZM11.4761 10.2322C11.7584 10.5099 11.9829 10.8408 12.1368 11.2057C12.2906 11.5707 12.3706 11.9624 12.3723 12.3584C12.374 12.7545 12.2972 13.1469 12.1464 13.5131C11.9957 13.8793 11.7739 14.212 11.4939 14.4921C11.2139 14.7721 10.8812 14.994 10.5151 15.1448C10.1489 15.2957 9.75649 15.3726 9.36047 15.371C8.96445 15.3694 8.57266 15.2895 8.2077 15.1357C7.84274 14.982 7.51183 14.7575 7.23406 14.4752C6.6714 13.9126 6.3553 13.1495 6.3553 12.3537C6.3553 11.558 6.6714 10.7949 7.23406 10.2322C7.79671 9.66958 8.55984 9.35348 9.35556 9.35348C10.1513 9.35348 10.9144 9.66958 11.4771 10.2322M8.64906 11.6472C8.55355 11.7395 8.47736 11.8498 8.42495 11.9718C8.37254 12.0938 8.34496 12.2251 8.34381 12.3578C8.34265 12.4906 8.36795 12.6223 8.41823 12.7452C8.46852 12.8681 8.54277 12.9797 8.63666 13.0736C8.73055 13.1675 8.84221 13.2418 8.9651 13.2921C9.088 13.3423 9.21968 13.3676 9.35246 13.3665C9.48524 13.3653 9.61646 13.3377 9.73846 13.2853C9.86046 13.2329 9.97081 13.1567 10.0631 13.0612C10.2507 12.8737 10.3562 12.6194 10.3563 12.3541C10.3564 12.0888 10.2511 11.8344 10.0636 11.6467C9.87605 11.4591 9.62168 11.3536 9.35641 11.3535C9.09114 11.3534 8.8367 11.4587 8.64906 11.6462M4.76006 6.34224C4.71393 6.29448 4.65876 6.25639 4.59776 6.23019C4.53676 6.20398 4.47115 6.19019 4.40476 6.18961C4.33837 6.18903 4.27253 6.20169 4.21108 6.22683C4.14963 6.25197 4.0938 6.28909 4.04686 6.33604C3.99991 6.38299 3.96279 6.43881 3.93764 6.50026C3.9125 6.56171 3.89985 6.62755 3.90043 6.69394C3.90101 6.76033 3.9148 6.82594 3.941 6.88694C3.96721 6.94794 4.0053 7.00311 4.05306 7.04924C4.14736 7.14032 4.27366 7.19071 4.40476 7.18957C4.53585 7.18843 4.66126 7.13585 4.75396 7.04315C4.84667 6.95044 4.89925 6.82504 4.90039 6.69394C4.90153 6.56284 4.85114 6.43654 4.76006 6.34224Z" fill="#79747E"/>
</g>
<defs>
<clipPath id="clip0_1478_3445">
<rect width="24" height="24" fill="white"/>
</clipPath>
</defs>
</svg>
